<svg aria-hidden="true" style="position: absolute; width: 0; height: 0; overflow: hidden;" version="1.1" xmlns="http://www.w3.org/2000/svg" xmlns:xlink="http://www.w3.org/1999/xlink">
<defs>
<symbol id="icon-arrow-down" viewBox="0 0 32 32">
<path d="M17.6 25.6l-11.2-12.8h22.4l-11.2 12.8z"></path>
</symbol>
<symbol id="icon-glypharrow" viewBox="0 0 20 32">
<path d="M1.113 27.396c-1.029 0.931-1.111 2.521-0.182 3.553s2.515 1.114 3.544 0.183l14.782-13.368c1.107-1.001 1.104-2.744-0.007-3.742l-14.652-13.159c-1.032-0.927-2.618-0.84-3.543 0.195s-0.837 2.625 0.195 3.552l12.093 10.86c0.257 0.231 0.258 0.633 0.002 0.864l-12.23 11.061z"></path>
</symbol>
<symbol id="icon-teleg" viewBox="0 0 36 32">
<path d="M33.745 1.457c0.412 0.375 0.551 0.932 0.359 1.433l-10.612 27.632c-0.205 0.535-0.748 0.901-1.369 0.924s-1.195-0.302-1.447-0.819l-5.827-11.949-13.112-5.311c-0.568-0.23-0.924-0.753-0.899-1.319s0.427-1.061 1.014-1.248l30.321-9.671c0.55-0.175 1.161-0.048 1.573 0.327zM17.805 17.937l4.088 8.383 7.154-18.628-11.243 10.245zM26.903 5.738l-20.441 6.52 9.199 3.726 11.243-10.245z"></path>
</symbol>
<symbol id="icon-facebook" viewBox="0 0 19 32">
<path d="M13.808 6.264h3.084v-4.895c-0.532-0.067-2.362-0.217-4.493-0.217-4.446 0-7.492 2.549-7.492 7.233v4.311h-4.907v5.472h4.907v13.768h6.016v-13.767h4.708l0.747-5.472h-5.457v-3.77c0.001-1.582 0.469-2.664 2.887-2.664z"></path>
</symbol>
<symbol id="icon-instagram" viewBox="0 0 35 32">
<path d="M11.447 1.11h12.129c5.581 0 10.107 4.124 10.107 9.211v11.053c0 5.086-4.526 9.21-10.107 9.21h-12.129c-5.581 0-10.107-4.125-10.107-9.21v-11.053c0-5.086 4.526-9.211 10.107-9.211zM23.576 27.82c3.901 0 7.075-2.892 7.075-6.447v-11.053c0-3.555-3.174-6.447-7.075-6.447h-12.129c-3.901 0-7.075 2.892-7.075 6.447v11.053c0 3.555 3.174 6.447 7.075 6.447h12.129z"></path>
<path d="M9.426 15.846c0-4.069 3.62-7.368 8.086-7.368s8.086 3.299 8.086 7.368-3.62 7.368-8.086 7.368c-4.465 0-8.086-3.299-8.086-7.368zM12.458 15.846c0 2.538 2.268 4.605 5.053 4.605s5.054-2.067 5.054-4.605c0-2.54-2.268-4.605-5.054-4.605s-5.053 2.065-5.053 4.605z"></path>
<path d="M27.281 7.925c0 0.542-0.482 0.982-1.077 0.982s-1.077-0.44-1.077-0.982c0-0.542 0.482-0.982 1.077-0.982s1.077 0.44 1.077 0.982z"></path>
</symbol>
</defs>
</svg>
